<?xml version="1.0" standalone="no"?>
<!DOCTYPE svg PUBLIC "-//W3C//DTD SVG 20010904//EN"
 "http://www.w3.org/TR/2001/REC-SVG-20010904/DTD/svg10.dtd">
<svg version="1.0" xmlns="http://www.w3.org/2000/svg"
 width="740.000000pt" height="493.000000pt" viewBox="0 0 740.000000 493.000000"
 preserveAspectRatio="xMidYMid meet">

<g transform="translate(0.000000,493.000000) scale(0.100000,-0.100000)"
fill="#000000" stroke="none">
<path d="M3440 3198 c-107 -5 -197 -11 -199 -13 -4 -4 35 -340 45 -383 l4 -22
497 2 c407 3 497 5 501 17 3 9 -1 11 -17 6 -19 -6 -21 -3 -21 44 0 50 0 51 31
51 16 0 50 -5 74 -11 69 -17 79 -42 25 -65 l-24 -11 26 -17 c19 -13 43 -16 92
-14 l67 3 -223 213 -222 212 -230 -2 c-127 0 -319 -5 -426 -10z"/>
<path d="M4381 3015 l197 -195 98 0 c53 0 95 2 93 4 -2 2 -123 90 -267 195
-187 136 -271 191 -290 191 -23 0 -1 -26 169 -195z"/>
<path d="M3013 3150 c-169 -34 -216 -53 -284 -116 -56 -53 -107 -131 -93 -143
11 -9 595 -113 602 -107 4 4 -30 282 -44 364 -7 38 3 38 -181 2z"/>
<path d="M4840 2799 c0 -4 18 -38 40 -75 22 -38 40 -72 40 -76 0 -5 -357 -8
-793 -8 -603 0 -796 -3 -805 -12 -9 -9 -15 -9 -24 0 -7 7 -42 12 -85 12 -83 0
-83 -1 -53 78 11 30 16 51 12 48 -5 -3 -20 -33 -32 -66 l-22 -60 -118 0 c-147
0 -383 22 -570 54 -359 61 -546 62 -1200 6 -450 -39 -478 -43 -527 -68 -29
-14 -51 -27 -49 -29 1 -2 223 17 492 42 593 54 752 61 944 46 140 -12 190 -18
463 -61 133 -20 477 -45 528 -38 l29 5 0 -254 c0 -156 4 -262 10 -274 10 -19
31 -19 905 -19 l895 0 0 -25 c0 -14 4 -25 8 -25 18 0 32 262 22 400 -5 74 -9
147 -10 163 l0 27 658 0 c505 0 695 -3 813 -15 151 -14 382 -49 400 -61 13 -8
11 20 -3 39 -9 11 -46 22 -113 32 -287 46 -305 47 -1045 52 l-715 5 -29 58
c-28 55 -65 112 -66 99z m87 -213 c8 -7 15 -367 9 -438 l-8 -88 -894 0 c-707
0 -895 3 -899 13 -2 6 -6 126 -8 264 l-5 253 657 2 c593 3 1143 0 1148 -6z"/>
<path d="M2812 2453 c-6 -43 -9 -80 -7 -82 6 -5 11 11 25 86 l13 62 41 4 c39
3 38 4 -10 5 l-51 2 -11 -77z"/>
<path d="M6744 2370 l-20 -100 27 0 c59 0 91 99 54 170 -26 51 -39 37 -61 -70z"/>
<path d="M1990 2414 c-52 -9 -147 -48 -195 -80 -70 -46 -109 -90 -219 -247
l-96 -138 47 -21 c28 -12 78 -23 118 -26 l71 -4 16 -57 c34 -114 154 -234 265
-264 24 -6 43 -15 43 -19 0 -4 -396 -8 -880 -8 l-880 0 0 -25 0 -25 3420 0
3420 0 0 28 0 27 -701 -3 c-471 -1 -698 1 -694 8 3 5 13 10 20 10 32 0 126 51
170 91 59 55 83 88 111 158 l23 56 208 5 c187 4 212 7 238 25 l30 20 -25 3
c-14 2 -32 10 -40 18 -12 10 -56 14 -165 16 l-150 3 -6 100 c-4 79 -11 112
-31 157 -32 69 -96 135 -163 168 -46 23 -64 25 -218 28 -200 4 -283 -10 -373
-64 -86 -51 -124 -93 -232 -251 l-97 -142 -1191 -1 -1191 0 -10 108 c-14 163
-64 247 -185 313 l-63 34 -185 2 c-102 0 -196 -1 -210 -3z m218 -239 c59 -25
111 -82 128 -143 42 -145 -60 -282 -211 -282 -191 0 -293 222 -167 362 66 73
165 98 250 63z m3527 -4 c144 -67 172 -263 51 -368 -46 -41 -96 -56 -167 -51
-78 6 -133 43 -172 118 -24 46 -28 64 -25 112 11 155 173 254 313 189z m-2269
-326 c19 -13 54 -27 77 -30 23 -3 261 -5 528 -3 447 3 488 4 506 21 17 14 41
17 166 17 96 0 148 -4 153 -11 3 -6 25 -20 48 -30 34 -15 66 -19 182 -19 l141
0 32 -50 c18 -27 51 -65 75 -84 45 -38 140 -86 169 -86 9 0 17 -4 17 -10 0 -7
-567 -10 -1682 -10 -925 0 -1678 4 -1673 8 6 5 29 14 52 20 90 26 201 125 244
217 l14 30 290 5 c270 5 292 6 318 25 25 18 40 20 167 17 129 -3 144 -5 176
-27z"/>
<path d="M2014 2128 c-47 -37 -85 -91 -72 -103 1 -2 33 -6 71 -10 l67 -7 0 48
c0 96 -15 112 -66 72z"/>
<path d="M2176 2123 c-3 -16 -8 -49 -11 -74 l-5 -45 72 9 c40 6 75 11 77 13 9
8 -44 82 -73 102 -42 29 -53 28 -60 -5z"/>
<path d="M2104 1986 c-9 -24 4 -48 23 -44 24 4 24 52 0 56 -9 2 -20 -4 -23
-12z"/>
<path d="M2052 1933 c-18 -2 -30 -7 -28 -11 2 -4 -16 -5 -40 -3 -31 2 -44 -1
-44 -10 0 -25 51 -86 90 -108 l39 -22 5 33 c10 66 17 128 14 126 -2 0 -18 -3
-36 -5z"/>
<path d="M2165 1885 c3 -27 8 -62 11 -78 l6 -27 39 22 c37 20 89 82 89 104 0
6 -34 15 -76 20 l-75 10 6 -51z m65 25 c0 -5 -4 -10 -10 -10 -5 0 -10 5 -10
10 0 6 5 10 10 10 6 0 10 -4 10 -10z"/>
<path d="M5530 2128 c-31 -22 -80 -92 -70 -101 3 -3 37 -9 77 -14 l72 -9 -4
25 c-2 14 -7 47 -10 74 -7 54 -17 57 -65 25z"/>
<path d="M5689 2113 c-1 -21 -3 -52 -5 -69 l-2 -32 71 5 c39 2 73 5 75 7 8 9
-29 65 -63 95 -50 44 -75 42 -76 -6z"/>
<path d="M5624 1986 c-7 -18 1 -46 13 -46 4 0 15 5 23 10 11 7 12 14 4 27 -15
24 -33 28 -40 9z"/>
<path d="M5572 1933 c-18 -2 -30 -7 -28 -11 2 -4 -16 -5 -40 -3 -52 4 -56 -7
-20 -60 23 -33 90 -79 100 -68 3 3 8 25 11 49 3 25 8 57 11 73 3 15 4 26 2 25
-2 0 -18 -3 -36 -5z"/>
<path d="M5683 1894 c4 -21 7 -54 7 -71 0 -26 4 -33 20 -33 38 0 136 109 112
124 -5 3 -39 8 -77 12 l-68 7 6 -39z m67 22 c0 -3 -4 -8 -10 -11 -5 -3 -10 -1
-10 4 0 6 5 11 10 11 6 0 10 -2 10 -4z"/>
<path d="M2833 2343 c9 -2 23 -2 30 0 6 3 -1 5 -18 5 -16 0 -22 -2 -12 -5z"/>
<path d="M790 2280 l0 -30 60 0 60 0 0 30 0 30 -60 0 -60 0 0 -30z"/>
<path d="M2795 2280 c4 -6 11 -8 16 -5 14 9 11 15 -7 15 -8 0 -12 -5 -9 -10z"/>
<path d="M2780 2231 c0 -25 6 -27 13 -6 4 8 2 17 -3 20 -6 4 -10 -3 -10 -14z"/>
<path d="M6470 2193 l0 -33 60 0 c60 0 60 0 60 29 0 29 -1 29 -60 33 l-60 3 0
-32z"/>
<path d="M2766 2174 c-11 -28 -6 -74 7 -80 7 -2 24 0 38 6 23 10 23 10 -6 7
-29 -2 -30 -1 -27 41 4 43 -1 54 -12 26z"/>
</g>
</svg>
